<?xml version="1.0" standalone="no"?>
<!DOCTYPE svg PUBLIC "-//W3C//DTD SVG 20010904//EN"
 "http://www.w3.org/TR/2001/REC-SVG-20010904/DTD/svg10.dtd">
<svg version="1.0" xmlns="http://www.w3.org/2000/svg"
 width="500.000000pt" height="500.000000pt" viewBox="0 0 500.000000 500.000000"
 preserveAspectRatio="xMidYMid meet">
<metadata>
Created by potrace 1.14, written by Peter Selinger 2001-2017
</metadata>
<g transform="translate(0.000000,500.000000) scale(0.100000,-0.100000)"
fill="#000000" stroke="none">
<path d="M2250 4540 c-19 -5 -46 -11 -60 -14 -14 -3 -41 -8 -60 -10 -51 -6
-80 -13 -220 -53 -235 -67 -422 -154 -605 -281 -164 -114 -342 -274 -462 -417
-194 -230 -349 -566 -403 -873 -13 -75 -21 -290 -10 -297 7 -4 30 83 30 115 0
10 3 21 7 23 5 3 6 -37 5 -89 -3 -63 0 -94 7 -94 6 0 11 7 11 15 0 8 3 15 8
15 4 0 7 -69 7 -153 1 -181 8 -259 39 -406 9 -41 14 -76 12 -78 -8 -8 -46 181
-61 300 -20 154 -26 168 -20 47 5 -115 10 -145 41 -277 162 -683 665 -1233
1339 -1466 72 -25 133 -45 138 -45 6 -1 74 -14 87 -17 8 -2 84 -17 105 -21
132 -24 635 -24 635 0 0 4 13 6 29 4 17 -2 28 -1 26 3 -7 10 82 22 97 13 7 -5
8 -3 3 6 -6 10 -1 12 18 8 15 -3 25 -2 22 2 -2 3 31 16 73 29 455 133 867 438
1136 841 92 138 192 349 242 515 41 133 44 147 59 220 7 39 14 61 14 50 3 -60
-63 -309 -118 -447 -41 -102 -104 -227 -162 -320 -56 -91 -66 -117 -15 -42
131 195 239 455 291 704 16 75 19 93 35 225 8 68 6 410 -3 450 -4 18 -8 44
-23 140 -14 90 -83 315 -133 430 -5 11 -27 65 -50 120 -96 232 -299 499 -511
671 -154 125 -296 206 -525 299 -319 129 -461 158 -800 161 -132 1 -256 -2
-275 -6z m-560 -184 c0 -2 -7 -7 -16 -10 -8 -3 -12 -2 -9 4 6 10 25 14 25 6z
m-50 -26 c-8 -5 -19 -10 -25 -10 -5 0 -3 5 5 10 8 5 20 10 25 10 6 0 3 -5 -5
-10z m-40 -15 c0 -2 -13 -11 -30 -20 -38 -19 -40 -11 -2 9 31 17 32 18 32 11z
m-70 -39 c0 -2 -7 -7 -16 -10 -8 -3 -12 -2 -9 4 6 10 25 14 25 6z m-129 -77
c-144 -93 -247 -174 -356 -284 -55 -55 -85 -81 -67 -58 39 50 155 158 237 222
77 60 257 180 270 180 6 1 -32 -26 -84 -60z m29 -43 c0 -2 -12 -11 -27 -20
l-28 -17 24 20 c23 21 31 25 31 17z m-60 -40 c0 -3 -15 -14 -32 -26 l-33 -22
30 26 c31 27 35 29 35 22z m-90 -71 c-13 -14 -26 -23 -28 -20 -4 4 38 44 47
45 3 0 -6 -11 -19 -25z m-70 -57 c-19 -17 -78 -72 -130 -122 -76 -73 -82 -72
-9 3 46 48 160 151 167 151 4 0 -9 -14 -28 -32z m-422 -475 c-23 -26 -127
-241 -120 -247 3 -3 0 -6 -7 -6 -8 0 -11 -6 -7 -16 4 -9 2 -13 -5 -8 -8 4 -9
-1 -4 -16 5 -17 4 -21 -6 -15 -9 6 -11 3 -6 -9 4 -11 3 -15 -4 -10 -8 4 -9 -1
-4 -16 5 -16 4 -20 -5 -15 -9 5 -10 1 -6 -16 6 -20 5 -21 -4 -7 -13 21 19 106
98 258 50 97 78 140 90 140 3 0 -2 -8 -10 -17z m-178 -418 c0 -5 -5 -3 -10 5
-8 12 -10 12 -10 1 0 -8 -2 -12 -5 -9 -3 3 -2 13 1 22 5 14 9 15 15 4 5 -7 9
-17 9 -23z m-68 -227 c-6 -6 -7 0 -4 19 5 21 7 23 10 9 2 -10 0 -22 -6 -28z
m-25 -160 c-3 -8 -6 -5 -6 6 -1 11 2 17 5 13 3 -3 4 -12 1 -19z m-10 -105 c-3
-10 -5 -2 -5 17 0 19 2 27 5 18 2 -10 2 -26 0 -35z m4040 -410 c-3 -10 -5 -2
-5 17 0 19 2 27 5 18 2 -10 2 -26 0 -35z m-617 -1157 c0 -2 -8 -10 -17 -17
-16 -13 -17 -12 -4 4 13 16 21 21 21 13z"/>
<path d="M4149 1223 c-13 -16 -12 -17 4 -4 9 7 17 15 17 17 0 8 -8 3 -21 -13z"/>
<path d="M4094 1158 l-19 -23 23 19 c21 18 27 26 19 26 -2 0 -12 -10 -23 -22z"/>
<path d="M4014 1068 l-29 -33 33 29 c17 17 32 31 32 33 0 8 -8 1 -36 -29z"/>
<path d="M3930 985 c-24 -25 -42 -45 -39 -45 3 0 25 20 49 45 24 25 42 45 39
45 -3 0 -25 -20 -49 -45z"/>
<path d="M3849 913 l-24 -28 28 24 c15 14 27 26 27 28 0 8 -8 1 -31 -24z"/>
<path d="M3794 868 l-19 -23 23 19 c21 18 27 26 19 26 -2 0 -12 -10 -23 -22z"/>
<path d="M3675 784 l-30 -26 33 22 c17 12 32 23 32 26 0 7 -4 5 -35 -22z"/>
<path d="M3584 724 c-18 -14 -18 -15 4 -4 12 6 22 13 22 15 0 8 -5 6 -26 -11z"/>
<path d="M3480 670 c-9 -6 -10 -10 -3 -10 6 0 15 5 18 10 8 12 4 12 -15 0z"/>
<path d="M3400 630 c-9 -6 -10 -10 -3 -10 6 0 15 5 18 10 8 12 4 12 -15 0z"/>
<path d="M3335 600 c-3 -6 1 -7 9 -4 18 7 21 14 7 14 -6 0 -13 -4 -16 -10z"/>
<path d="M3158 533 c7 -3 16 -2 19 1 4 3 -2 6 -13 5 -11 0 -14 -3 -6 -6z"/>
</g>
</svg>
